<?xml version="1.0" encoding="UTF-8" standalone="no"?>
<svg width="256px" height="256px" viewBox="0 0 256 256" version="1.1" xmlns="http://www.w3.org/2000/svg" xmlns:xlink="http://www.w3.org/1999/xlink">
    <defs>
        <rect id="path-1" x="0" y="0" width="100.408163" height="84.0816327"></rect>
        <rect id="path-3" x="0" y="0" width="100.408163" height="84.0816327"></rect>
        <rect id="path-5" x="0" y="0" width="100.408163" height="115.918367"></rect>
        <rect id="path-7" x="0" y="0" width="100.408163" height="115.918367"></rect>
    </defs>
    <g id="seats" transform="translate(28.000000, 28.000000)">
        <g id="red-seat" transform="translate(99.591837, 115.918367)">
            <mask id="mask-2" fill="white">
                <use xlink:href="#path-1"></use>
            </mask>
            <g id="Mask"></g>
            <g mask="url(#mask-2)" fill="#C83E31">
                <g transform="translate(-90.612245, -115.918367)">
                    <rect id="Rectangle-1" x="28.5714286" y="120" width="124.081633" height="34.2857143" rx="8"></rect>
                    <path d="M45.1321149,7.97574002 C45.453639,3.57086044 49.2898049,0 53.7225465,0 L127.501943,0 C131.924784,0 135.770276,3.56299012 136.092375,7.97574002 L143.091299,103.860995 C143.412823,108.265874 140.081777,111.836735 135.6753,111.836735 L45.5491901,111.836735 C41.131923,111.836735 37.8110927,108.273745 38.1331912,103.860995 L45.1321149,7.97574002 Z" id="Rectangle-1-Copy"></path>
                    <path d="M0.582170805,96.1390053 C0.260646747,91.7341257 3.58204796,88.1632653 7.99700753,88.1632653 L11.5948292,88.1632653 C16.0114545,88.1632653 19.5918367,91.7419161 19.5918367,96.1614058 L19.5918367,192.00186 C19.5918367,196.419111 16.0071219,200 11.5922136,200 L16.1628885,200 C11.7448186,200 7.90319303,196.43701 7.5810945,192.02426 L0.582170805,96.1390053 Z" id="Rectangle-1-Copy-2"></path>
                    <path d="M161.632653,96.1614058 C161.632653,91.7441548 165.214701,88.1632653 169.629661,88.1632653 L173.227482,88.1632653 C177.644108,88.1632653 180.964418,91.7262554 180.642319,96.1390053 L173.643395,192.02426 C173.321871,196.42914 169.47651,200 165.061601,200 L169.632276,200 C165.214206,200 161.632653,196.421349 161.632653,192.00186 L161.632653,96.1614058 Z" id="Rectangle-1-Copy-3"></path>
                </g>
            </g>
        </g>
        <g id="green-seat" transform="translate(0.000000, 115.918367)">
            <mask id="mask-4" fill="white">
                <use xlink:href="#path-3"></use>
            </mask>
            <g id="Mask"></g>
            <g mask="url(#mask-4)" fill="#6BB132">
                <g transform="translate(8.979592, -115.918367)">
                    <rect id="Rectangle-1" x="28.5714286" y="120" width="124.081633" height="34.2857143" rx="8"></rect>
                    <path d="M45.1321149,7.97574002 C45.453639,3.57086044 49.2898049,0 53.7225465,0 L127.501943,0 C131.924784,0 135.770276,3.56299012 136.092375,7.97574002 L143.091299,103.860995 C143.412823,108.265874 140.081777,111.836735 135.6753,111.836735 L45.5491901,111.836735 C41.131923,111.836735 37.8110927,108.273745 38.1331912,103.860995 L45.1321149,7.97574002 Z" id="Rectangle-1-Copy"></path>
                    <path d="M0.582170805,96.1390053 C0.260646747,91.7341257 3.58204796,88.1632653 7.99700753,88.1632653 L11.5948292,88.1632653 C16.0114545,88.1632653 19.5918367,91.7419161 19.5918367,96.1614058 L19.5918367,192.00186 C19.5918367,196.419111 16.0071219,200 11.5922136,200 L16.1628885,200 C11.7448186,200 7.90319303,196.43701 7.5810945,192.02426 L0.582170805,96.1390053 Z" id="Rectangle-1-Copy-2"></path>
                    <path d="M161.632653,96.1614058 C161.632653,91.7441548 165.214701,88.1632653 169.629661,88.1632653 L173.227482,88.1632653 C177.644108,88.1632653 180.964418,91.7262554 180.642319,96.1390053 L173.643395,192.02426 C173.321871,196.42914 169.47651,200 165.061601,200 L169.632276,200 C165.214206,200 161.632653,196.421349 161.632653,192.00186 L161.632653,96.1614058 Z" id="Rectangle-1-Copy-3"></path>
                </g>
            </g>
        </g>
        <g id="yellow-seat" transform="translate(99.591837, 0.000000)">
            <mask id="mask-6" fill="white">
                <use xlink:href="#path-5"></use>
            </mask>
            <g id="Mask"></g>
            <g mask="url(#mask-6)" fill="#FFCC38">
                <g transform="translate(-90.612245, 0.000000)">
                    <rect id="Rectangle-1" x="28.5714286" y="120" width="124.081633" height="34.2857143" rx="8"></rect>
                    <path d="M45.1321149,7.97574002 C45.453639,3.57086044 49.2898049,0 53.7225465,0 L127.501943,0 C131.924784,0 135.770276,3.56299012 136.092375,7.97574002 L143.091299,103.860995 C143.412823,108.265874 140.081777,111.836735 135.6753,111.836735 L45.5491901,111.836735 C41.131923,111.836735 37.8110927,108.273745 38.1331912,103.860995 L45.1321149,7.97574002 Z" id="Rectangle-1-Copy"></path>
                    <path d="M0.582170805,96.1390053 C0.260646747,91.7341257 3.58204796,88.1632653 7.99700753,88.1632653 L11.5948292,88.1632653 C16.0114545,88.1632653 19.5918367,91.7419161 19.5918367,96.1614058 L19.5918367,192.00186 C19.5918367,196.419111 16.0071219,200 11.5922136,200 L16.1628885,200 C11.7448186,200 7.90319303,196.43701 7.5810945,192.02426 L0.582170805,96.1390053 Z" id="Rectangle-1-Copy-2"></path>
                    <path d="M161.632653,96.1614058 C161.632653,91.7441548 165.214701,88.1632653 169.629661,88.1632653 L173.227482,88.1632653 C177.644108,88.1632653 180.964418,91.7262554 180.642319,96.1390053 L173.643395,192.02426 C173.321871,196.42914 169.47651,200 165.061601,200 L169.632276,200 C165.214206,200 161.632653,196.421349 161.632653,192.00186 L161.632653,96.1614058 Z" id="Rectangle-1-Copy-3"></path>
                </g>
            </g>
        </g>
        <g id="blue-seat">
            <mask id="mask-8" fill="white">
                <use xlink:href="#path-7"></use>
            </mask>
            <g id="Mask"></g>
            <g mask="url(#mask-8)" fill="#5176C7">
                <g transform="translate(8.979592, 0.000000)">
                    <rect id="Rectangle-1" x="28.5714286" y="120" width="124.081633" height="34.2857143" rx="8"></rect>
                    <path d="M45.1321149,7.97574002 C45.453639,3.57086044 49.2898049,0 53.7225465,0 L127.501943,0 C131.924784,0 135.770276,3.56299012 136.092375,7.97574002 L143.091299,103.860995 C143.412823,108.265874 140.081777,111.836735 135.6753,111.836735 L45.5491901,111.836735 C41.131923,111.836735 37.8110927,108.273745 38.1331912,103.860995 L45.1321149,7.97574002 Z" id="Rectangle-1-Copy"></path>
                    <path d="M0.582170805,96.1390053 C0.260646747,91.7341257 3.58204796,88.1632653 7.99700753,88.1632653 L11.5948292,88.1632653 C16.0114545,88.1632653 19.5918367,91.7419161 19.5918367,96.1614058 L19.5918367,192.00186 C19.5918367,196.419111 16.0071219,200 11.5922136,200 L16.1628885,200 C11.7448186,200 7.90319303,196.43701 7.5810945,192.02426 L0.582170805,96.1390053 Z" id="Rectangle-1-Copy-2"></path>
                    <path d="M161.632653,96.1614058 C161.632653,91.7441548 165.214701,88.1632653 169.629661,88.1632653 L173.227482,88.1632653 C177.644108,88.1632653 180.964418,91.7262554 180.642319,96.1390053 L173.643395,192.02426 C173.321871,196.42914 169.47651,200 165.061601,200 L169.632276,200 C165.214206,200 161.632653,196.421349 161.632653,192.00186 L161.632653,96.1614058 Z" id="Rectangle-1-Copy-3"></path>
                </g>
            </g>
        </g>
    </g>
</svg>