<svg width="120px" height="120px" xmlns="http://www.w3.org/2000/svg" viewBox="0 0 100 100" preserveAspectRatio="xMidYMid" class="uil-default">
	<rect x="0" y="0" width="100" height="100" fill="none" class="bk"></rect>
	<rect opacity="0" x="47" y="40" width="6" height="20" rx="0" ry="0" fill="#000000" transform="rotate(0 50 50) translate(0 -30)">
		<animate attributeName="opacity" from="1" to="0" dur="1s" begin="0s" repeatCount="indefinite"/>
	</rect>
	<rect opacity="0" x="47" y="40" width="6" height="20" rx="0" ry="0" fill="#000000" transform="rotate(30 50 50) translate(0 -30)">
		<animate attributeName="opacity" from="1" to="0" dur="1s" begin="0.0833s" repeatCount="indefinite"/>
	</rect>
	<rect opacity="0" x="47" y="40" width="6" height="20" rx="0" ry="0" fill="#000000" transform="rotate(60 50 50) translate(0 -30)">
		<animate attributeName="opacity" from="1" to="0" dur="1s" begin="0.1666s" repeatCount="indefinite"/>
	</rect>
	<rect opacity="0" x="47" y="40" width="6" height="20" rx="0" ry="0" fill="#000000" transform="rotate(90 50 50) translate(0 -30)">
		<animate attributeName="opacity" from="1" to="0" dur="1s" begin="0.25s" repeatCount="indefinite"/>
	</rect>
	<rect opacity="0" x="47" y="40" width="6" height="20" rx="0" ry="0" fill="#000000" transform="rotate(120 50 50) translate(0 -30)">
		<animate attributeName="opacity" from="1" to="0" dur="1s" begin="0.3333s" repeatCount="indefinite"/>
	</rect>
	<rect opacity="0" x="47" y="40" width="6" height="20" rx="0" ry="0" fill="#000000" transform="rotate(150 50 50) translate(0 -30)">
		<animate attributeName="opacity" from="1" to="0" dur="1s" begin="0.4166s" repeatCount="indefinite"/>
	</rect>
	<rect opacity="0" x="47" y="40" width="6" height="20" rx="0" ry="0" fill="#000000" transform="rotate(180 50 50) translate(0 -30)">
		<animate attributeName="opacity" from="1" to="0" dur="1s" begin="0.5s" repeatCount="indefinite"/>
	</rect>
	<rect opacity="0" x="47" y="40" width="6" height="20" rx="0" ry="0" fill="#000000" transform="rotate(210 50 50) translate(0 -30)">
		<animate attributeName="opacity" from="1" to="0" dur="1s" begin="0.5833s" repeatCount="indefinite"/>
	</rect>
	<rect opacity="0" x="47" y="40" width="6" height="20" rx="0" ry="0" fill="#000000" transform="rotate(240 50 50) translate(0 -30)">
		<animate attributeName="opacity" from="1" to="0" dur="1s" begin="0.6666s" repeatCount="indefinite"/>
	</rect>
	<rect opacity="0" x="47" y="40" width="6" height="20" rx="0" ry="0" fill="#000000" transform="rotate(270 50 50) translate(0 -30)">
		<animate attributeName="opacity" from="1" to="0" dur="1s" begin="0.75s" repeatCount="indefinite"/>
	</rect>
	<rect opacity="0" x="47" y="40" width="6" height="20" rx="0" ry="0" fill="#000000" transform="rotate(300 50 50) translate(0 -30)">
		<animate attributeName="opacity" from="1" to="0" dur="1s" begin="0.8333s" repeatCount="indefinite"/>
	</rect>
	<rect opacity="0" x="47" y="40" width="6" height="20" rx="0" ry="0" fill="#000000" transform="rotate(330 50 50) translate(0 -30)">
		<animate attributeName="opacity" from="1" to="0" dur="1s" begin="0.9166s" repeatCount="indefinite"/>
	</rect>
</svg>